<svg id="Layer_1" data-name="Layer 1" xmlns="http://www.w3.org/2000/svg" width="68.92" height="59.24" viewBox="0 0 68.92 59.24"><defs><style>.cls-1{fill:#1d1d1b;}</style></defs><title>remember</title><path class="cls-1" d="M66.86,54.44c-.33-1.5-4.08-8.08-4.08-8.46s2.08-1.91,2.71-2.58.08-15.42,0-18.21-2.13-2.71-2.13-2.71l.13-4s1.83-.71,2-1.21,0-10.91-1.09-12.41-5-2.13-17.25-2.13a157.48,157.48,0,0,0-23.79,2S23.15,3.4,23,2.77s-2-.91-7.59-.7S2.9,2.9,2.28,3.48s.12,9.29.21,9.84,0,2.08.5,2.25a13.13,13.13,0,0,0,2.66-.09l.63,9.34A14.27,14.27,0,0,0,3.4,25.94c-1.16.67.13,10,.42,11.13s2.29,1.16,2.79,1.41-1.08,11.79-1.25,14-.21,3.92,1.71,4,14.54.63,30.21.67,26.92.21,27.87.08A2.23,2.23,0,0,0,66.86,54.44Zm-4.41.92c-2.34-.09-25.5,0-38.88-.25s-15.87,0-16.12-.71S8.24,43,8.36,40.32,8,36.52,7.24,36.48s-1.79,0-1.84-.25-1-8.75-.5-9.08,2.88,0,3-.75S7.57,13.73,7,13.57A14.73,14.73,0,0,0,4,13.82c0-.25-.5-8.38-.3-8.67s5.3-.79,10.5-1a51.13,51.13,0,0,1,7,0s.21,2.37.8,2.41a127.19,127.19,0,0,1,22.2-1.87c14.59-.13,18.84,1,19,1.5s0,9.66,0,9.91-1.54.92-1.58,1.25a66.65,66.65,0,0,0,0,7.09c.21.08,2.13.16,2.13.41s.12,17.3.12,17.3-3.21,2.79-3.08,3.5,4.12,8.33,4.12,8.87S64.78,55.44,62.45,55.36ZM5.28,6.07c-.33.08-.08,2.33,0,2.58,0,0,.42.33.75.21s.25-2.21.17-2.63S5.61,6,5.28,6.07ZM25.7,30.36c.25-.21.08-1.29,0-1.54s-1.84-.13-1.84-.13L18,18.61s4.41-1.38,4.37-5.88c0-2.79-1.54-6-6.62-6.25A15.66,15.66,0,0,0,7.07,8.4l.25,1.46,3.54-1.29,1.42,20.2s-2.88.42-3.21.55.17,1.5.21,1.62a34,34,0,0,0,5.29-.62,3.88,3.88,0,0,0,0-1.59c-.08-.16-1-.12-1-.12l-.33-9.67,2.58,0,6.63,11.54A16.44,16.44,0,0,0,25.7,30.36ZM13.07,17.48s-.71-8.91-.42-9.21,7.71-.95,7.92,4.34S13.07,17.48,13.07,17.48ZM6.24,29a32.34,32.34,0,0,0,.29,3.63s.83-.08,1-.33A16.92,16.92,0,0,0,7.15,29C7.11,28.77,6.24,29,6.24,29ZM16,30.61a20.57,20.57,0,0,0,1.75,3.16c.12.13.83-.29.87-.45a23.8,23.8,0,0,0-1.79-3.13C16.61,30,16,30.61,16,30.61Zm3.41,2a.74.74,0,0,0,.71-.54,15,15,0,0,0-1.62-3.46c-.21-.17-1,.46-1,.46A17.82,17.82,0,0,0,19.36,32.65Zm7.21-6.88c.75.17,8.38,0,8.67-.08s.08-2,0-2.29-1.92-.17-1.92-.17l.09.92L27,24.07s-.3-5.42-.3-5.67,4-.21,4-.21.21,1.42.29,1.58,1,.21,1.38.13,0-4.79,0-5.13-1.54-.12-1.54-.12-.08,1.58,0,1.79-4.38,0-4.38,0-.29-5.33-.25-5.58,7,0,7.21,0,.38,1.79.42,1.92a2.19,2.19,0,0,0,1.33-.13,19.32,19.32,0,0,0,0-3.46c0-.54-10.1-.79-10.33-.2-.09.2.58,15,.66,15.62S25.82,25.61,26.57,25.77Zm15.13.59c.37-.17.16-1.09.12-1.29s-1.71-.25-1.87-.25-.71-14-.71-14,2.87,4.7,3.83,4.41,3.21-4.08,3.38-4.33.45,13.67.41,13.83-.66.13-1,.17-.12,1.46,0,1.62A5.94,5.94,0,0,0,49,26.4c.37-.38-.63-14.5-.67-16.5s-1.42-1.79-2-1.42A43.37,43.37,0,0,0,43,13.19S40.28,9.32,39.9,9s-2,.21-2.08.42.29,16.92.5,17.08A11.82,11.82,0,0,0,41.7,26.36Zm18.37,2.91a12.59,12.59,0,0,0,0-2.83c0-.42-1.41-.29-1.66-.25s-.3,1.08-.34,1.25a41.72,41.72,0,0,1-4.5-.17c-.25,0-.37-6.87-.37-7.12s2.41,0,2.41,0a19.51,19.51,0,0,0,.17,2c.08.12,1.33.16,1.54-.13a41.56,41.56,0,0,0,0-5.58c0-.29-1.41-.46-1.75-.21s0,2.13,0,2.29a9.7,9.7,0,0,1-2.45,0C53,18.4,53,9.9,53,9.77s5.54.17,5.54.17l.16,2.17a5.6,5.6,0,0,0,1.63.08c.46-.12,0-3.33-.08-3.87s-8.63-.56-9-.09.29,20.71.41,21A47.29,47.29,0,0,0,60.07,29.27ZM20,34.36c-.46.16-3.38,5.33-3.55,5.58S13,35.52,12.49,35.27s-.67-.37-1,.09-.16,17.13,0,17.16a19.16,19.16,0,0,0,3.5.21c.17-.12.17-1,.13-1.25s-1.83-.54-2-.58-.09-12.63-.09-12.63,2.34,3,2.67,3.5a1.14,1.14,0,0,0,1.63.13c.41-.46,2.79-4.54,3-4.79s.2,13.54.25,13.91-1.3.21-1.5.3-.25,1.29-.13,1.58,3,0,3.33-.17S21.9,35,21.9,34.44,20.4,34.19,20,34.36ZM34.4,41.9s1-.5,1.21-3.75-2.54-5.79-6.25-5.46a6.34,6.34,0,0,0-5.37,4c0,.21,1.29,1,1.5.79s1.29-1.62,1.46-1.79.5,15.08.37,15.42-1.75-.34-2-.29S25,52.11,25,52.11s.75,1,5.08.71,6.58-1.63,7-6S34.4,41.9,34.4,41.9Zm-1,8.58c-1.58.84-3.87,1-4.16.75S28.4,35.15,28.7,34.9c0,0,4.37-1.17,4.91,1.54s.09,4.13-.75,4.63-1,.5-1,.7,0,.67.09.71,2.79.17,3.41,2.5A4.85,4.85,0,0,1,33.4,50.48ZM44.53,30.23A45.82,45.82,0,0,0,36,32.36c-.17.21.12,1.21.12,1.37A23.73,23.73,0,0,0,40,33c.21-.08.08.46.12,4s.13,13.88.13,14-2.42.17-2.63.25-.12,1.5-.12,1.5.62.09,4.71,0,7-.12,7.16-.12a14.36,14.36,0,0,0,.13-3.21c-.09-.62-.84-.62-1.34-.46s-.25,1.75-.29,1.92a51.75,51.75,0,0,1-5.71,0c-.25,0,0-8,0-8.17s4,0,4.21-.16-.08-2.92-.12-3.42-.8-.29-1.13-.17S45,41,45,41.19a18,18,0,0,1-3,0c-.25,0-.34-8.33-.17-8.63s6.29-.79,6.46-.75,0,2.38,0,2.75.83.38,1.29.09.29-2.54.21-3.63S48.86,29.52,44.53,30.23Zm-15-1.37a13.59,13.59,0,0,0,1.42,3c.21.17.66-.17.79-.33a10.65,10.65,0,0,0-1.38-3.3C30.11,28.15,29.57,28.86,29.57,28.86Zm2.92.25a18,18,0,0,0,.79,2.21c.08.12.71-.09,1-.38s-.62-2.08-.83-2.21S32.49,29.11,32.49,29.11ZM59,49.86a21.77,21.77,0,0,1-2.63-6.29s2.38-.71,3.88-4.46-.21-6.75-3.13-7.67-6,1.21-6,1.21a2.61,2.61,0,0,0,.21,1.67c.21.29.75-.42.79-.3S52,52.52,52,52.73a16.52,16.52,0,0,0,3.83.13c.25-.09.13-.79.08-1.09s-1.66-.25-1.83-.29,0-7.29,0-7.29,2.29,5.83,3.67,7.58A4.15,4.15,0,0,0,61,53.61c.46,0,.92-.88.87-1.13A7.67,7.67,0,0,1,59,49.86Zm-5.38-7.25c-.42-.59-.17-9.29.08-9.5s5.34-1.38,5,3.21S54,43.19,53.57,42.61Z"/></svg>